<?xml version="1.0" encoding="utf-8"?>
<!-- Generator: Adobe Illustrator 17.1.0, SVG Export Plug-In . SVG Version: 6.00 Build 0)  -->
<!DOCTYPE svg PUBLIC "-//W3C//DTD SVG 1.1//EN" "http://www.w3.org/Graphics/SVG/1.1/DTD/svg11.dtd">
<svg version="1.1" id="Layer_1" xmlns="http://www.w3.org/2000/svg" xmlns:xlink="http://www.w3.org/1999/xlink" x="0px" y="0px"
	 viewBox="-86 90 658.6 337" enable-background="new -86 90 658.6 337" xml:space="preserve">
<g>
	<path fill="#CCCCCC" d="M265.2,364.4c-5.2-3.8-5.8-9.6-5.8-9.6l-2-12.5h-62.2l-2,12.5c0,0-0.5,5.7-5.7,9.6
		c-5.2,3.8-9.3,7.1-5.2,7.7c4,0.5,41.3,0,44,0c2.8,0,40.1,0.5,44,0C274.5,371.5,270.4,368.2,265.2,364.4z"/>
	<path fill="#CCCCCC" d="M120.5,259.7c0-5.8-4.7-10.5-10.5-10.5H60.5c-5.8,0-10.5,4.7-10.5,10.5v109.7c0,5.8,4.7,10.5,10.5,10.5
		h49.6c5.8,0,10.5-4.7,10.5-10.5L120.5,259.7L120.5,259.7z M80.1,261h10.5c0.7,0,1.3,0.6,1.3,1.3c0,0.7-0.6,1.3-1.3,1.3H80.1
		c-0.7,0-1.3-0.6-1.3-1.3C78.8,261.6,79.4,261,80.1,261z M84.9,373.7c-2.9,0-5.2-2.3-5.2-5.2c0-2.9,2.3-5.2,5.2-5.2
		c2.9,0,5.2,2.3,5.2,5.2C90.1,371.3,87.8,373.7,84.9,373.7z M114,359H56.5v-87.5H114L114,359L114,359z"/>
	<path fill="#CCCCCC" d="M447.3,189.1H339.8c-8.1,0-14.7,6.6-14.7,14.7v153.9c0,8.1,6.6,14.7,14.7,14.7h107.5
		c8.1,0,14.7-6.6,14.7-14.7V203.8C462,195.7,455.4,189.1,447.3,189.1z M372.5,364.2c-4,0-7.3-3.3-7.3-7.3c0-4,3.3-7.3,7.3-7.3
		c4,0,7.3,3.3,7.3,7.3C379.9,360.9,376.6,364.2,372.5,364.2z M393.6,364.2c-4,0-7.3-3.3-7.3-7.3c0-4,3.3-7.3,7.3-7.3
		c4.1,0,7.3,3.3,7.3,7.3C400.9,360.9,397.6,364.2,393.6,364.2z M414.7,364.2c-4.1,0-7.3-3.3-7.3-7.3c0-4,3.3-7.3,7.3-7.3
		c4,0,7.3,3.3,7.3,7.3C422,360.9,418.7,364.2,414.7,364.2z M452.8,343H334.4V202h118.5V343L452.8,343z"/>
	<path fill="#CCCCCC" d="M358.5,176.8h18v-32.6c0-6.6-5.4-12-12-12H88.3c-6.6,0-12,5.4-12,12v92.7h18v-86.7h264.3V176.8L358.5,176.8
		z"/>
	<path fill="#CCCCCC" d="M132.9,294.3v36h179.9v-36H132.9z M226.4,320.5c-4.5,0-8.2-3.7-8.2-8.2c0-4.5,3.7-8.2,8.2-8.2
		c4.5,0,8.2,3.7,8.2,8.2C234.7,316.9,231,320.5,226.4,320.5z"/>
</g>
</svg>
